<svg width="129" height="32" viewBox="0 0 129 32" fill="none" xmlns="http://www.w3.org/2000/svg">
<path d="M38.98 29.6623V4.56219H40.7518V29.6623H38.98Z" fill="#F7FAFD"/>
<path d="M46.7552 21.3621C46.7883 25.7094 48.9785 28.4213 52.2301 28.4213C55.4816 28.4213 56.4855 26.6367 57.0952 25.2476H58.9002C58.1871 27.4939 56.3783 30.0707 52.1599 30.0707C46.9682 30.0707 44.9476 25.6111 44.9476 21.2779C44.9476 16.3924 47.3751 12.2084 52.364 12.2084C57.6271 12.2084 59.3046 16.7355 59.3046 19.964C59.3046 20.4437 59.3046 20.9182 59.2701 21.3621H46.7539H46.7552ZM57.4677 19.8301C57.4332 16.4868 55.6168 13.8501 52.2989 13.8501C48.8153 13.8501 47.2284 16.2839 46.8585 19.8301H57.4677Z" fill="#F7FAFD"/>
<path d="M76.8227 4.56219V24.7588C76.8227 26.3929 76.8227 27.9619 76.8571 29.6623H75.1555C75.0866 29.2515 75.0509 27.6647 75.0509 26.8228C74.1988 28.8854 72.3007 30.0705 69.3438 30.0705C64.9149 30.0705 62.254 26.4605 62.254 21.3428C62.254 16.225 65.1522 12.2082 69.7928 12.2082C73.1809 12.2082 74.5432 13.6611 75.0509 14.7441V4.56219H76.8227ZM64.1292 21.2726C64.1292 25.9133 66.5248 28.4198 69.4421 28.4198C73.9143 28.4198 75.1223 25.3265 75.1223 20.7394C75.1223 16.1523 74.0802 13.8601 69.7457 13.8601C66.3908 13.8601 64.1304 16.5363 64.1304 21.2739L64.1292 21.2726Z" fill="#F7FAFD"/>
<path d="M82.285 24.9478C82.859 27.1444 84.4178 28.4608 87.0902 28.4608C90.0955 28.4608 91.3086 27.0806 91.3086 25.1915C91.3086 23.3023 90.4922 22.3252 86.7049 21.4119C82.2811 20.348 81.1943 19.0099 81.1943 16.7559C81.1943 14.5019 82.9674 12.2084 86.8478 12.2084C90.7282 12.2084 92.5689 14.5708 92.838 16.9893H91.0713C90.7677 15.576 89.6592 13.8156 86.7764 13.8156C83.8935 13.8156 82.998 15.2647 82.998 16.6143C82.998 18.1667 83.8093 18.9423 87.1705 19.7561C91.9974 20.9195 93.1812 22.4961 93.1812 25.0512C93.1812 28.147 90.667 30.0707 87.0506 30.0707C83.1358 30.0707 80.9545 28.0157 80.48 24.9478H82.2837H82.285Z" fill="#F7FAFD"/>
<path d="M109.284 26.3965C109.284 27.8992 109.42 29.1187 109.522 29.6608H107.822C107.685 29.2539 107.583 28.5 107.517 27.0573C106.937 28.3112 105.444 30.069 101.944 30.069C97.9858 30.069 96.2803 27.5089 96.2803 24.95C96.2803 21.1972 99.1823 19.4904 104.294 19.4904H107.515V17.7671C107.515 16.0731 107.004 13.814 103.157 13.814C99.7461 13.814 99.2371 15.5998 98.8659 16.9928H97.0992C97.3046 15.0921 98.4807 12.2042 103.195 12.2054C107.097 12.2054 109.285 13.8459 109.285 17.6025V26.394L109.284 26.3965ZM107.548 20.9893H104.239C100.476 20.9893 98.1529 21.9753 98.1529 24.8786C98.1529 27.0063 99.6695 28.4617 102.04 28.4617C106.873 28.4617 107.548 25.2485 107.548 21.599V20.9893Z" fill="#F7FAFD"/>
<path d="M116.647 21.3759C118.208 19.7049 122.924 14.9137 125.21 12.6164H127.464L120.733 19.3924L128.31 29.661H126.124L119.461 20.5264L116.646 23.2396V29.661H114.874V4.56219H116.646V21.3759H116.647Z" fill="#F7FAFD"/>
<path d="M38.98 29.6623V4.56219H40.7518V29.6623H38.98Z" fill="#F7FAFD"/>
<path d="M46.7552 21.3621C46.7883 25.7094 48.9785 28.4213 52.2301 28.4213C55.4816 28.4213 56.4855 26.6367 57.0952 25.2476H58.9002C58.1871 27.4939 56.3783 30.0707 52.1599 30.0707C46.9682 30.0707 44.9476 25.6111 44.9476 21.2779C44.9476 16.3924 47.3751 12.2084 52.364 12.2084C57.6271 12.2084 59.3046 16.7355 59.3046 19.964C59.3046 20.4437 59.3046 20.9182 59.2701 21.3621H46.7539H46.7552ZM57.4677 19.8301C57.4332 16.4868 55.6168 13.8501 52.2989 13.8501C48.8153 13.8501 47.2284 16.2839 46.8585 19.8301H57.4677Z" fill="#F7FAFD"/>
<path d="M76.8227 4.56219V24.7588C76.8227 26.3929 76.8227 27.9619 76.8571 29.6623H75.1555C75.0866 29.2515 75.0509 27.6647 75.0509 26.8228C74.1988 28.8854 72.3007 30.0705 69.3438 30.0705C64.9149 30.0705 62.254 26.4605 62.254 21.3428C62.254 16.225 65.1522 12.2082 69.7928 12.2082C73.1809 12.2082 74.5432 13.6611 75.0509 14.7441V4.56219H76.8227ZM64.1292 21.2726C64.1292 25.9133 66.5248 28.4198 69.4421 28.4198C73.9143 28.4198 75.1223 25.3265 75.1223 20.7394C75.1223 16.1523 74.0802 13.8601 69.7457 13.8601C66.3908 13.8601 64.1304 16.5363 64.1304 21.2739L64.1292 21.2726Z" fill="#F7FAFD"/>
<path d="M82.285 24.9478C82.859 27.1444 84.4178 28.4608 87.0902 28.4608C90.0955 28.4608 91.3086 27.0806 91.3086 25.1915C91.3086 23.3023 90.4922 22.3252 86.7049 21.4119C82.2811 20.348 81.1943 19.0099 81.1943 16.7559C81.1943 14.5019 82.9674 12.2084 86.8478 12.2084C90.7282 12.2084 92.5689 14.5708 92.838 16.9893H91.0713C90.7677 15.576 89.6592 13.8156 86.7764 13.8156C83.8935 13.8156 82.998 15.2647 82.998 16.6143C82.998 18.1667 83.8093 18.9423 87.1705 19.7561C91.9974 20.9195 93.1812 22.4961 93.1812 25.0512C93.1812 28.147 90.667 30.0707 87.0506 30.0707C83.1358 30.0707 80.9545 28.0157 80.48 24.9478H82.2837H82.285Z" fill="#F7FAFD"/>
<path d="M109.284 26.3965C109.284 27.8992 109.42 29.1187 109.522 29.6608H107.822C107.685 29.2539 107.583 28.5 107.517 27.0573C106.937 28.3112 105.444 30.069 101.944 30.069C97.9858 30.069 96.2803 27.5089 96.2803 24.95C96.2803 21.1972 99.1823 19.4904 104.294 19.4904H107.515V17.7671C107.515 16.0731 107.004 13.814 103.157 13.814C99.7461 13.814 99.2371 15.5998 98.8659 16.9928H97.0992C97.3046 15.0921 98.4807 12.2042 103.195 12.2054C107.097 12.2054 109.285 13.8459 109.285 17.6025V26.394L109.284 26.3965ZM107.548 20.9893H104.239C100.476 20.9893 98.1529 21.9753 98.1529 24.8786C98.1529 27.0063 99.6695 28.4617 102.04 28.4617C106.873 28.4617 107.548 25.2485 107.548 21.599V20.9893Z" fill="#F7FAFD"/>
<path d="M116.647 21.3759C118.208 19.7049 122.924 14.9137 125.21 12.6164H127.464L120.733 19.3924L128.31 29.661H126.124L119.461 20.5264L116.646 23.2396V29.661H114.874V4.56219H116.646V21.3759H116.647Z" fill="#F7FAFD"/>
<path d="M0.138538 17.8636C0.176807 17.4031 0.267374 16.9489 0.406415 16.5076C0.536527 16.0981 0.666639 15.6887 0.812057 15.2843C1.51236 13.3441 2.64638 11.6922 4.20516 10.3464C5.60195 9.14098 7.02808 7.96997 8.49375 6.74157C9.2438 7.63194 9.99768 8.52741 10.7528 9.42289C11.5118 10.3209 12.2734 11.2164 13.0668 12.1527C11.6585 13.3326 10.2617 14.4488 8.92618 15.6338C5.84687 18.3649 6.85204 23.3168 10.7477 24.6128C12.6254 25.2378 14.3539 24.8513 15.8718 23.5999C17.2048 22.5004 18.5098 21.3689 19.7828 20.2885C21.3161 22.1024 22.8315 23.8933 24.3929 25.7391C22.6823 27.1257 21.01 28.7011 19.1297 29.9665C11.5769 35.051 1.04294 30.0571 0.107924 21.0105C0.0964435 20.8944 0.0811362 20.7783 0.0645533 20.6635C-0.00177807 20.1979 -0.0183609 19.7272 0.0211828 19.2591L0.137263 17.8648L0.138538 17.8636ZM11.309 4.42124C12.7964 6.1803 14.3079 7.9687 15.7532 9.67801C17.4791 8.21872 19.256 6.71478 21.0189 5.22487C19.5609 3.51301 18.0621 1.75268 16.5696 0C14.8054 1.48225 13.0234 2.97981 11.309 4.42124ZM27.0831 23.1764C28.8562 21.6789 30.6433 20.1698 32.3845 18.6978C30.9508 16.9898 29.4647 15.2192 28.0181 13.4959C26.2527 14.9883 24.4758 16.4923 22.718 17.9784C24.1773 19.717 25.6749 21.499 27.0831 23.1764ZM16.6818 10.6615L14.2352 12.7726L14.2391 12.7764L16.6857 10.6666L16.6818 10.6615ZM27.1622 5.77721L24.9682 7.67403L27.4505 7.87813L19.8887 14.3837L18.7955 13.1145L16.6844 10.6679L14.2378 12.7777L10.5271 15.9782L12.6382 18.4248L16.3476 15.2243L19.5481 18.9351L21.1299 17.5702L29.2568 10.5786L29.6637 10.2316L29.4558 12.7803L31.5949 10.9638L31.9853 6.17137L27.1622 5.77721ZM16.6882 10.6628L16.6844 10.6666L18.7955 13.1132L18.7994 13.1094L16.6882 10.6628Z" fill="#F7FAFD"/>
</svg>
